Coordinates
version=1
nRows=21
nColumns=22
inDegrees=yes

Units are S.I. units (second, meters, Newtons, ...)
If the header above contains a line with 'inDegrees', this indicates whether rotational values are in degrees (yes) or radians (no).

endheader
time	pelvis_tilt	pelvis_list	pelvis_rotation	pelvis_tx	pelvis_ty	pelvis_tz	hip_flexion_r	hip_adduction_r	hip_rotation_r	knee_angle_r	ankle_angle_r	subtalar_angle_r	hip_flexion_l	hip_adduction_l	hip_rotation_l	knee_angle_l	ankle_angle_l	subtalar_angle_l	lumbar_extension	lumbar_bending	lumbar_rotation
      1.21000000	    -10.76156006	     -0.67252507	    -12.98128194	     -0.90734873	      0.97042113	      0.14069843	     22.52719074	      2.38993075	      3.60117983	    -28.58012840	     22.91362548	     -3.49748345	     21.71221066	      0.81736458	     -3.48124279	    -28.32323038	     23.76332318	     -5.45595880	      1.51169182	      2.34527947	      4.99348826
      1.22000000	    -10.81813438	     -0.65440712	    -12.92619327	     -0.90517726	      0.96990662	      0.14047380	     22.58591044	      2.34342632	      3.59238352	    -28.85621013	     23.30573611	     -3.29048249	     21.70431950	      0.91472067	     -3.29543838	    -28.44231768	     23.94431419	     -5.58439580	      1.66392197	      2.31790005	      4.94031831
      1.23000000	    -10.82227878	     -0.64737612	    -12.92043273	     -0.90291359	      0.96943756	      0.14036045	     22.59581372	      2.32643162	      3.65497120	    -29.15267524	     23.67002116	     -3.27059186	     21.62222671	      0.98656366	     -3.18486243	    -28.55233556	     24.19125411	     -5.61493550	      1.74000000	      2.28962814	      4.95519416
      1.24000000	    -10.82345080	     -0.55942196	    -12.91805579	     -0.90065216	      0.96887516	      0.14020228	     22.68663700	      2.22245342	      3.71663072	    -29.56383846	     24.04804750	     -3.15454048	     21.55482904	      1.14997648	     -3.07056786	    -28.66247457	     24.38457572	     -5.67687282	      1.80884998	      2.16873681	      4.97351722
      1.25000000	    -10.80681835	     -0.46323037	    -12.93762950	     -0.89834351	      0.96827230	      0.14008098	     22.80285451	      2.11414708	      3.78112292	    -30.05000677	     24.40364646	     -3.07420883	     21.46367849	      1.31563328	     -2.99043902	    -28.76971902	     24.62358054	     -5.72196732	      1.84118645	      2.03745251	      5.00662989
      1.26000000	    -10.77321965	     -0.33247413	    -12.97220965	     -0.89601345	      0.96761628	      0.13995892	     22.96672413	      1.97050681	      3.84348458	    -30.63311061	     24.73296968	     -3.01981568	     21.35906299	      1.51755578	     -2.93637987	    -28.87595597	     24.86860163	     -5.75567927	      1.84012058	      1.86963004	      5.04682528
      1.27000000	    -10.73136254	     -0.16381816	    -13.02513649	     -0.89366096	      0.96689841	      0.13985494	     23.19099418	      1.78705470	      3.88538493	    -31.31457332	     25.03379323	     -2.96907902	     21.25026078	      1.75390705	     -2.91276970	    -28.98006113	     25.11358547	     -5.79063705	      1.81849015	      1.65901719	      5.10094033
      1.28000000	    -10.67751560	      0.02756367	    -13.08995622	     -0.89127257	      0.96613805	      0.13976051	     23.45927019	      1.57850368	      3.90899860	    -32.07643834	     25.31346071	     -2.95212355	     21.12893782	      2.01475776	     -2.90301171	    -29.08135852	     25.37545257	     -5.82320195	      1.76922901	      1.42572526	      5.15242245
      1.29000000	    -10.62318402	      0.24851790	    -13.16977402	     -0.88884739	      0.96533058	      0.13967948	     23.79196514	      1.33671921	      3.89359074	    -32.92473952	     25.56784985	     -2.94446796	     21.00790592	      2.30249183	     -2.91761515	    -29.17743457	     25.62514417	     -5.86931164	      1.70934183	      1.16419574	      5.21535832
      1.30000000	    -10.56783336	      0.47895156	    -13.25498610	     -0.88637458	      0.96450052	      0.13960542	     24.17458537	      1.08146899	      3.83524739	    -33.84064468	     25.79791502	     -2.95893473	     20.88326879	      2.59971975	     -2.94410270	    -29.26992442	     25.87472523	     -5.92958473	      1.63341487	      0.89942568	      5.27783754
      1.31000000	    -10.51074020	      0.71946201	    -13.34830611	     -0.88383432	      0.96367434	      0.13956376	     24.60527140	      0.81253093	      3.73093193	    -34.81838664	     26.01016160	     -3.00887430	     20.74413324	      2.90576726	     -2.97802648	    -29.34109339	     26.12950865	     -6.00147963	      1.54358172	      0.62573561	      5.33240688
      1.32000000	    -10.45989084	      0.96820487	    -13.44487425	     -0.88122085	      0.96285604	      0.13951445	     25.09370391	      0.52859847	      3.57167721	    -35.85426651	     26.18859959	     -3.10376840	     20.60269308	      3.21912588	     -3.02942001	    -29.39712045	     26.36297170	     -6.09500325	      1.44955279	      0.35514413	      5.38955783
      1.33000000	    -10.41221179	      1.21789424	    -13.54465875	     -0.87852744	      0.96207459	      0.13948430	     25.63053285	      0.24080733	      3.36888862	    -36.93649187	     26.33278017	     -3.25996450	     20.44640043	      3.53240219	     -3.08584496	    -29.42458679	     26.60460551	     -6.19416558	      1.34635201	      0.08836785	      5.43602429
      1.34000000	    -10.37778584	      1.46322711	    -13.64506360	     -0.87574693	      0.96132924	      0.13947130	     26.22231406	     -0.04469739	      3.11644448	    -38.05319495	     26.42604091	     -3.49009051	     20.28893300	      3.83468128	     -3.16465371	    -29.43357225	     26.83723843	     -6.30193608	      1.24528594	     -0.16283819	      5.47567245
      1.35000000	    -10.32768289	      1.70012731	    -13.74063230	     -0.87288387	      0.96067285	      0.13946659	     26.83540375	     -0.32271531	      2.85802303	    -39.20002580	     26.49602913	     -3.73590284	     20.09032240	      4.13994957	     -3.21313149	    -29.40581781	     27.10094314	     -6.36756662	      1.10623328	     -0.40726928	      5.50958946
      1.36000000	    -10.30992951	      1.93194897	    -13.83886833	     -0.86992351	      0.96002866	      0.13946263	     27.52141677	     -0.58899747	      2.56912044	    -40.36545329	     26.50923272	     -4.07148311	     19.91360860	      4.42676257	     -3.29957863	    -29.36645380	     27.33630603	     -6.44485889	      0.99352586	     -0.62651463	      5.52443215
      1.37000000	    -10.25436075	      2.14099587	    -13.93344568	     -0.86683634	      0.95951939	      0.13947623	     28.19048970	     -0.83252517	      2.29673724	    -41.53088234	     26.50791013	     -4.31300200	     19.65791376	      4.71262877	     -3.32920022	    -29.27875558	     27.62971573	     -6.46572472	      0.81441031	     -0.82883840	      5.53446827
      1.38000000	    -10.21700146	      2.34556520	    -14.02625562	     -0.86362126	      0.95903464	      0.13950713	     28.90993918	     -1.05854925	      2.02981555	    -42.69278057	     26.46448958	     -4.58134501	     19.40059732	      4.98364979	     -3.39340572	    -29.16710465	     27.90002339	     -6.48561006	      0.64723849	     -1.01675408	      5.52669875
      1.39000000	    -10.19182619	      2.53212371	    -14.11118769	     -0.86026334	      0.95857888	      0.13955615	     29.65918704	     -1.25114795	      1.77956282	    -43.82890587	     26.37460862	     -4.86986139	     19.13250730	      5.22678160	     -3.49365257	    -29.03470470	     28.18083810	     -6.50355943	      0.48127877	     -1.17532180	      5.48349947
      1.40000000	    -10.14548028	      2.69801993	    -14.19311413	     -0.85676720	      0.95819214	      0.13963548	     30.40057643	     -1.40646765	      1.57507490	    -44.92490663	     26.25542535	     -5.06486502	     18.80365519	      5.46093488	     -3.56014443	    -28.85996043	     28.50456624	     -6.49320008	      0.27275084	     -1.31669230	      5.43957931
      1.41000000	    -10.10832765	      2.85715013	    -14.27679879	     -0.85313129	      0.95780040	      0.13975812	     31.17099366	     -1.53335362	      1.40298511	    -45.97355676	     26.11097301	     -5.22687869	     18.46024925	      5.67785054	     -3.65603875	    -28.66306189	     28.83599424	     -6.46408008	      0.06655715	     -1.44518718	      5.37326192
